# xmcd
# 
# Track frame offsets:
#     150
#     13875
#     29025
#     48825
#     65475
#     82425
#     100875
#     125625
#     144750
#     158175
#     173625
#     188175
#     204225
#     231675
# 
# Disc length: 3293
# 
# Revision: 1
# Processed by: cddbd v1.5.2PL0 Copyright (c) Steve Scherf et al.
# Submitted via: fre:ac v1.0.31
# 
DISCID=c90cdb0e
DTITLE=Samantha Fish - Chills and Fever
DYEAR=2017
DGENRE=Blues
TTITLE0=He Did It
TTITLE1=Chills and Fever
TTITLE2=Hello Stranger
TTITLE3=It's Your Voodoo Working
TTITLE4=Hurt's All Gone
TTITLE5=You Can't Go
TTITLE6=Either Way I Lose
TTITLE7=Never Gonna Cry
TTITLE8=Little Baby
TTITLE9=Nearer To You
TTITLE10=You'll Never Change
TTITLE11=Crow Jane
TTITLE12=Somebody's Always Trying
TTITLE13=I'll Come Running Over
EXTD=
EXTT0=
EXTT1=
EXTT2=
EXTT3=
EXTT4=
EXTT5=
EXTT6=
EXTT7=
EXTT8=
EXTT9=
EXTT10=
EXTT11=
EXTT12=
EXTT13=
PLAYORDER=
